<svg xmlns="http://www.w3.org/2000/svg" xmlns:xlink="http://www.w3.org/1999/xlink" width="404" height="30" viewBox="0 0 404 30" fill="none"><g opacity="0.79"><path     fill="#FFFFFF" fill-opacity="0" d="M0 30L404 30L335 0L0 0L0 30"></path><path fill-rule="evenodd"  fill="rgba(0, 204, 255, 1)"  d="M399.192 29L1 29L1 1L334.792 1L399.192 29ZM401.7 29L404 30L0 30L0 0L335 0L401.7 29Z"></path></g><path d="M319 9L333 9L368 23L354 23L319 9L319 9Z"   fill="#00CCFF" ></path><g opacity="0.8"><path d="M289 9L303 9L338 23L324 23L289 9L289 9Z"   fill="#00CCFF" ></path></g><g opacity="0.6"><path d="M259 9L273 9L308 23L294 23L259 9L259 9Z"   fill="#00CCFF" ></path></g><g opacity="0.6"><circle cx="7" cy="7" r="2"   fill="#00CCFF" ></circle></g><g opacity="0.6"><circle cx="7" cy="23" r="2"   fill="#00CCFF" ></circle></g></svg>