<svg xmlns="http://www.w3.org/2000/svg" xmlns:xlink="http://www.w3.org/1999/xlink" width="1126" height="71" viewBox="0 0 1126 71" fill="none"><path   fill-rule="evenodd"  fill="url(#linear_fill_yWk_3GC8P6mwda558nxKI_0)"  d="M269 42.6L97.97 42.6L0 -8.17869e-07L563 1.89L1126 -8.17869e-07L1028.03 42.6L857 42.6L791 71L335 71L269 42.6Z"></path><path fill-rule="evenodd"  fill="rgba(0, 204, 255, 1)"  d="M269 42.6L97.97 42.6L9.27069 4.03114L0 -8.17869e-07L10.1091 0.0339357L563 1.89L1115.89 0.0339359L1126 -8.17869e-07L1116.73 4.03114L1028.03 42.6L857 42.6L791 71L335 71L269 42.6ZM335.824 67L270.581 38.9257C270.082 38.7108 269.544 38.6 269 38.6L98.802 38.6L19.3798 4.06508L562.987 5.88998L1106.62 4.06508L1027.2 38.6L857 38.6C856.456 38.6 855.918 38.7108 855.419 38.9257L790.176 67L335.824 67Z"></path><defs><linearGradient id="linear_fill_yWk_3GC8P6mwda558nxKI_0" x1="0" y1="35.500099182128906" x2="1126" y2="35.500099182128906" gradientUnits="userSpaceOnUse"><stop offset="0" stop-color="#0E1931"  /><stop offset="0.1064453125" stop-color="#0E1931"  /><stop offset="0.50537109375" stop-color="#293654"  /><stop offset="0.904296875" stop-color="#0E1931"  /><stop offset="1" stop-color="#0E1931"  /></linearGradient></defs></svg>