<svg xmlns="http://www.w3.org/2000/svg" xmlns:xlink="http://www.w3.org/1999/xlink" width="404" height="30" viewBox="0 0 404 30" fill="none"><g opacity="0.79"><path     fill="#FFFFFF" fill-opacity="0" d="M69 0L0 30L404 30L404 0L69 0"></path><path fill-rule="evenodd"  fill="rgba(0, 204, 255, 1)"  d="M69 0L0 30L404 30L404 0L69 0ZM403 1L69.208 1L4.80799 29L403 29L403 1Z"></path></g><path d="M84.9999 9L71 9L36 23L50 23L84.9999 9L84.9999 9Z"   fill="#00CCFF" ></path><g opacity="0.8"><path d="M115 9L101 9L66 23L80 23L115 9L115 9Z"   fill="#00CCFF" ></path></g><g opacity="0.6"><path d="M145 9L131 9L96 23L110 23L145 9L145 9Z"   fill="#00CCFF" ></path></g><g opacity="0.6"><circle cx="397" cy="7" r="2"   fill="#00CCFF" ></circle></g><g opacity="0.6"><circle cx="397" cy="23" r="2"   fill="#00CCFF" ></circle></g></svg>